PathFileType	4	(X/Y/Z)	C:/Users/opensim2020/Desktop/walking_exp_matlab/subject02_walking05_straight_01.trc																																																																																																																												
DataRate	CameraRate	NumFrames	NumMarkers	Units	OrigDataRate	OrigDataStartFrame	OrigNumFrames																																																																																																																								
100	100	4	42	mm	100	745	190																																																																																																																								
Frame#	Time	LFHD			RFHD			LBHD			RBHD			C7			T10			CLAV			STRN			RBAK			LSHO			LUPA			LELB			LFRM			LWRA			LWRB			LFIN			RSHO			RUPA			RELB			RFRM			RWRA			RWRB			RFIN			LASI			RASI			LPSI			RPSI			LTHI			LKNE			LTIB			LANK			LHEE			LTOE			RTHI			RKNE			RTIB			RANK			RHEE			RTOE			*39			*40			*41		
		X1	Y1	Z1	X2	Y2	Z2	X3	Y3	Z3	X4	Y4	Z4	X5	Y5	Z5	X6	Y6	Z6	X7	Y7	Z7	X8	Y8	Z8	X9	Y9	Z9	X10	Y10	Z10	X11	Y11	Z11	X12	Y12	Z12	X13	Y13	Z13	X14	Y14	Z14	X15	Y15	Z15	X16	Y16	Z16	X17	Y17	Z17	X18	Y18	Z18	X19	Y19	Z19	X20	Y20	Z20	X21	Y21	Z21	X22	Y22	Z22	X23	Y23	Z23	X24	Y24	Z24	X25	Y25	Z25	X26	Y26	Z26	X27	Y27	Z27	X28	Y28	Z28	X29	Y29	Z29	X30	Y30	Z30	X31	Y31	Z31	X32	Y32	Z32	X33	Y33	Z33	X34	Y34	Z34	X35	Y35	Z35	X36	Y36	Z36	X37	Y37	Z37	X38	Y38	Z38	X39	Y39	Z39	X40	Y40	Z40	X41	Y41	Z41	X42	Y42	Z42
																																																																																																																															
96	0.95	-271.4577	1717.00525	-1119.61584	-290.68552	1688.52808	-979.63873	-398.28543	1640.97644	-1151.44763	-429.23734	1610.73242	-1014.38989	-462.46167	1501.05688	-1088.46069	-526.30493	1227.23901	-1081.073	-326.63272	1425.73694	-1097.54016	-282.96176	1251.65076	-1096.10669	-530.58826	1328.23145	-1029.93323	-383.60608	1477.98718	-1266.76184	-354.59894	1288.23743	-1362.76404	-312.66638	1154.01294	-1390.6416	-238.83968	1043.05432	-1403.97534	-128.02243	966.04749	-1372.77856	-168.6228	942.71082	-1404.65686	-117.93119	902.09259	-1412.76062	-391.06274	1456.46191	-900.97852	-449.85229	1272.90894	-823.84381	-457.83505	1127.36133	-802.70959	-440.15057	1008.57788	-778.47144	-395.37201	880.10284	-787.84302	-447.57034	879.09528	-764.38171	-414.51102	815.09271	-754.75659	-316.71448	958.91913	-1236.35034	-279.98346	955.82678	-979.67212	-512.32434	1005.16156	-1122.04077	-503.10574	1004.8208	-1008.89337	-442.96719	658.31964	-1270.05334	-517.68066	469.15695	-1237.76526	-633.61658	312.3252	-1237.27368	-705.46918	98.84151	-1203.6051	-748.64539	81.96562	-1152.83325	-562.44342	29.58674	-1213.03442	-281.4603	660.73743	-887.56195	-217.65904	463.63757	-928.66125	-198.58507	276.97427	-917.47852	-150.2047	88.14695	-945.578	-162.36417	26.8573	-1002.28925	11.22703	76.2128	-930.98401	-386.0788	1774.30603	-1039.69189	NaN	NaN	NaN	NaN	NaN	NaN
97	0.96	-261.58328	1716.63074	-1116.99561	-280.82932	1687.93311	-977.03979	-388.16055	1640.34741	-1149.05371	-419.3714	1609.81995	-1012.60376	-452.25839	1500.18738	-1085.98669	-515.43768	1226.28711	-1078.46399	-316.14142	1425.10938	-1095.33899	-272.10199	1251.18262	-1094.11914	-519.77405	1327.22729	-1027.45654	-373.63562	1477.37329	-1264.3335	-345.24704	1287.81665	-1359.99133	-303.23853	1153.7644	-1388.2981	-228.62788	1043.29553	-1400.92334	-116.65921	967.57306	-1369.58801	-157.26653	943.55566	-1400.99634	-106.51698	903.51282	-1408.88196	-380.14661	1455.51379	-898.59424	-439.97165	1272.31226	-821.69794	-448.29904	1126.80884	-801.00336	-432.2952	1007.91492	-776.78284	-388.63092	878.96783	-785.90802	-440.83835	878.48584	-762.67926	-408.42862	814.06268	-753.00482	-305.68021	958.32428	-1234.52112	-268.41431	955.58453	-977.74567	-500.97995	1004.19623	-1119.24048	-491.52893	1004.01965	-1006.29272	-433.35352	658.02869	-1268.87927	-508.98511	469.53992	-1237.27539	-627.71411	314.86359	-1237.06494	-703.55945	102.31761	-1204.16553	-746.84106	87.01772	-1153.63635	-562.30151	29.529	-1213.29382	-268.93857	660.40808	-886.38611	-207.95201	462.25049	-927.08014	-192.63493	274.7063	-919.41962	-146.33054	87.10291	-946.83221	-159.77501	28.92353	-1002.60913	16.13968	68.61414	-931.26947	-376.44427	1773.49976	-1037.13794	NaN	NaN	NaN	NaN	NaN	NaN
98	0.97	-251.5869	1716.86597	-1114.35889	-270.55371	1688.06287	-974.31268	-377.78098	1640.07129	-1146.51257	-408.80276	1609.09961	-1009.97986	-442.14978	1499.58081	-1083.29993	-504.73434	1226.23486	-1075.80115	-305.55237	1424.76868	-1093.12708	-261.34473	1251.13391	-1091.96216	-508.23099	1326.72754	-1025.0636	-363.66891	1477.01917	-1261.94885	-335.82669	1287.80103	-1357.67505	-294.24139	1153.38782	-1385.56641	-218.53535	1043.29712	-1397.89136	-105.9912	968.92358	-1366.24133	-146.32932	944.36456	-1397.40137	-94.91056	904.53394	-1404.9939	-369.56354	1454.77808	-896.32452	-429.78986	1271.7843	-819.39105	-438.6821	1126.11865	-799.33331	-423.70001	1007.3963	-775.00726	-381.56284	877.8277	-783.99933	-433.70914	878.01868	-760.88171	-402.13605	813.10596	-751.26233	-294.10986	957.784	-1232.49182	-257.22357	955.57257	-975.6413	-489.76563	1003.38666	-1116.4657	-479.95078	1003.48364	-1003.67291	-423.39117	657.90417	-1267.9281	-499.95779	470.24091	-1236.74255	-621.43127	317.75183	-1236.646	-701.15454	106.48167	-1205.00952	-744.33075	92.20078	-1154.44653	-561.86133	29.55291	-1213.36646	-257.44144	661.13873	-884.95575	-198.94312	462.50073	-924.92987	-184.60481	274.62048	-920.13141	-138.72652	88.13715	-944.23407	-156.01802	31.52857	-1000.78833	23.04621	63.26429	-930.01721	-366.76068	1773.23755	-1034.64478	NaN	NaN	NaN	NaN	NaN	NaN
99	0.98	-241.51004	1717.50745	-1111.49768	-260.46683	1688.2063	-971.56879	-367.41769	1640.36499	-1143.87817	-398.12164	1609.172	-1007.06744	-431.98236	1499.49475	-1080.69031	-494.08023	1226.31238	-1073.34119	-295.11093	1424.97058	-1090.71753	-250.63243	1251.40051	-1089.68738	-497.98236	1327.00464	-1022.59351	-353.82111	1477.18555	-1259.58215	-326.73819	1287.56165	-1354.95886	-285.5304	1152.96118	-1383.15369	-208.98131	1043.34241	-1394.72961	-95.75541	970.18896	-1362.66333	-135.83928	945.03864	-1393.61475	-84.08621	905.53229	-1400.90784	-358.56619	1454.38928	-893.55524	-419.84186	1271.4519	-817.11383	-428.93179	1125.59985	-797.51874	-415.29596	1006.87762	-773.23193	-374.15317	876.89301	-782.21997	-426.45972	877.43524	-759.54962	-395.8345	812.41248	-749.59021	-282.41302	957.31555	-1230.18433	-246.0766	955.93604	-973.23224	-478.41156	1002.78668	-1114.0675	-468.27158	1003.72546	-1001.22192	-412.87378	658.00732	-1266.64355	-490.30859	471.13574	-1236.30762	-614.64795	321.03192	-1236.16907	-698.41846	110.98506	-1205.7312	-741.44006	98.2028	-1155.16345	-561.53284	29.64701	-1213.66809	-246.72173	662.49066	-883.10101	-188.60223	463.90079	-922.32495	-174.64032	276.66669	-915.10901	-132.53363	87.93565	-941.32355	-153.0845	33.50546	-998.62683	28.23947	58.91505	-930.26532	-356.94592	1773.2345	-1031.61584	NaN	NaN	NaN	NaN	NaN	NaN
